<mxfile host="app.diagrams.net" agent="Mozilla/5.0 (Macintosh; Intel Mac OS X 10_15_7) AppleWebKit/537.36 (KHTML, like Gecko) Chrome/131.0.0.0 Safari/537.36" version="26.0.4">
  <diagram name="第 1 页" id="FAblDaHDdPsiolcXKsLZ">
    <mxGraphModel dx="1242" dy="758" grid="1" gridSize="10" guides="1" tooltips="1" connect="1" arrows="1" fold="1" page="1" pageScale="1" pageWidth="827" pageHeight="1169" math="0" shadow="0">
      <root>
        <mxCell id="0" />
        <mxCell id="1" parent="0" />
        <mxCell id="PoOvZE_jFAfME5Ce7g3m-1" value="" style="shape=note;whiteSpace=wrap;html=1;backgroundOutline=1;darkOpacity=0.05;strokeWidth=2;" vertex="1" parent="1">
          <mxGeometry x="180" y="280" width="80" height="100" as="geometry" />
        </mxCell>
        <mxCell id="PoOvZE_jFAfME5Ce7g3m-2" value="" style="shape=note;whiteSpace=wrap;html=1;backgroundOutline=1;darkOpacity=0.05;strokeWidth=2;" vertex="1" parent="1">
          <mxGeometry x="180" y="400" width="80" height="100" as="geometry" />
        </mxCell>
        <mxCell id="PoOvZE_jFAfME5Ce7g3m-3" value="" style="shape=note;whiteSpace=wrap;html=1;backgroundOutline=1;darkOpacity=0.05;strokeWidth=2;" vertex="1" parent="1">
          <mxGeometry x="180" y="520" width="80" height="100" as="geometry" />
        </mxCell>
        <mxCell id="PoOvZE_jFAfME5Ce7g3m-4" value="" style="endArrow=classic;html=1;rounded=0;strokeWidth=2;fillColor=#dae8fc;strokeColor=#6c8ebf;" edge="1" parent="1">
          <mxGeometry width="50" height="50" relative="1" as="geometry">
            <mxPoint x="150" y="400" as="sourcePoint" />
            <mxPoint x="150" y="500" as="targetPoint" />
          </mxGeometry>
        </mxCell>
        <mxCell id="PoOvZE_jFAfME5Ce7g3m-5" value="向下滚动" style="edgeLabel;html=1;align=center;verticalAlign=middle;resizable=0;points=[];fontColor=light-dark(#6c8ebf, #ededed);" vertex="1" connectable="0" parent="PoOvZE_jFAfME5Ce7g3m-4">
          <mxGeometry x="-0.28" y="1" relative="1" as="geometry">
            <mxPoint as="offset" />
          </mxGeometry>
        </mxCell>
        <mxCell id="PoOvZE_jFAfME5Ce7g3m-14" style="edgeStyle=orthogonalEdgeStyle;rounded=0;orthogonalLoop=1;jettySize=auto;html=1;entryX=1;entryY=0.5;entryDx=0;entryDy=0;curved=1;strokeWidth=2;fillColor=#d5e8d4;strokeColor=#82b366;" edge="1" parent="1" source="PoOvZE_jFAfME5Ce7g3m-6" target="PoOvZE_jFAfME5Ce7g3m-9">
          <mxGeometry relative="1" as="geometry" />
        </mxCell>
        <mxCell id="PoOvZE_jFAfME5Ce7g3m-6" value="" style="rounded=0;whiteSpace=wrap;html=1;strokeWidth=2;fillColor=#d5e8d4;strokeColor=#82b366;" vertex="1" parent="1">
          <mxGeometry x="300" y="320" width="80" height="30" as="geometry" />
        </mxCell>
        <mxCell id="PoOvZE_jFAfME5Ce7g3m-15" style="edgeStyle=orthogonalEdgeStyle;rounded=0;orthogonalLoop=1;jettySize=auto;html=1;entryX=1;entryY=0.5;entryDx=0;entryDy=0;curved=1;strokeWidth=2;fillColor=#fff2cc;strokeColor=#d6b656;" edge="1" parent="1" source="PoOvZE_jFAfME5Ce7g3m-7" target="PoOvZE_jFAfME5Ce7g3m-10">
          <mxGeometry relative="1" as="geometry" />
        </mxCell>
        <mxCell id="PoOvZE_jFAfME5Ce7g3m-7" value="" style="rounded=0;whiteSpace=wrap;html=1;strokeWidth=2;fillColor=#fff2cc;strokeColor=#d6b656;" vertex="1" parent="1">
          <mxGeometry x="300" y="370" width="80" height="30" as="geometry" />
        </mxCell>
        <mxCell id="PoOvZE_jFAfME5Ce7g3m-16" style="edgeStyle=orthogonalEdgeStyle;rounded=0;orthogonalLoop=1;jettySize=auto;html=1;entryX=1;entryY=0.5;entryDx=0;entryDy=0;curved=1;strokeWidth=2;fillColor=#f8cecc;strokeColor=#b85450;" edge="1" parent="1" source="PoOvZE_jFAfME5Ce7g3m-8" target="PoOvZE_jFAfME5Ce7g3m-11">
          <mxGeometry relative="1" as="geometry" />
        </mxCell>
        <mxCell id="PoOvZE_jFAfME5Ce7g3m-8" value="" style="rounded=0;whiteSpace=wrap;html=1;strokeWidth=2;fillColor=#f8cecc;strokeColor=#b85450;" vertex="1" parent="1">
          <mxGeometry x="300" y="420" width="80" height="30" as="geometry" />
        </mxCell>
        <mxCell id="PoOvZE_jFAfME5Ce7g3m-9" value="" style="rounded=0;whiteSpace=wrap;html=1;strokeWidth=2;fillColor=#d5e8d4;strokeColor=#82b366;" vertex="1" parent="1">
          <mxGeometry x="200" y="320" width="30" height="10" as="geometry" />
        </mxCell>
        <mxCell id="PoOvZE_jFAfME5Ce7g3m-10" value="" style="rounded=0;whiteSpace=wrap;html=1;strokeWidth=2;fillColor=#fff2cc;strokeColor=#d6b656;" vertex="1" parent="1">
          <mxGeometry x="190" y="480" width="30" height="10" as="geometry" />
        </mxCell>
        <mxCell id="PoOvZE_jFAfME5Ce7g3m-11" value="" style="rounded=0;whiteSpace=wrap;html=1;strokeWidth=2;fillColor=#f8cecc;strokeColor=#b85450;" vertex="1" parent="1">
          <mxGeometry x="190" y="530" width="30" height="10" as="geometry" />
        </mxCell>
        <mxCell id="PoOvZE_jFAfME5Ce7g3m-17" value="" style="shape=note;whiteSpace=wrap;html=1;backgroundOutline=1;darkOpacity=0.05;strokeWidth=2;" vertex="1" parent="1">
          <mxGeometry x="440" y="280" width="80" height="100" as="geometry" />
        </mxCell>
        <mxCell id="PoOvZE_jFAfME5Ce7g3m-18" value="" style="shape=note;whiteSpace=wrap;html=1;backgroundOutline=1;darkOpacity=0.05;strokeWidth=2;" vertex="1" parent="1">
          <mxGeometry x="440" y="400" width="80" height="100" as="geometry" />
        </mxCell>
        <mxCell id="PoOvZE_jFAfME5Ce7g3m-19" value="" style="shape=note;whiteSpace=wrap;html=1;backgroundOutline=1;darkOpacity=0.05;strokeWidth=2;" vertex="1" parent="1">
          <mxGeometry x="440" y="520" width="80" height="100" as="geometry" />
        </mxCell>
        <mxCell id="PoOvZE_jFAfME5Ce7g3m-20" value="" style="rounded=0;whiteSpace=wrap;html=1;strokeWidth=2;fillColor=#d5e8d4;strokeColor=#82b366;" vertex="1" parent="1">
          <mxGeometry x="460" y="320" width="30" height="10" as="geometry" />
        </mxCell>
        <mxCell id="PoOvZE_jFAfME5Ce7g3m-21" value="" style="rounded=0;whiteSpace=wrap;html=1;strokeWidth=2;fillColor=#fff2cc;strokeColor=#d6b656;" vertex="1" parent="1">
          <mxGeometry x="450" y="480" width="30" height="10" as="geometry" />
        </mxCell>
        <mxCell id="PoOvZE_jFAfME5Ce7g3m-23" value="" style="shape=note;whiteSpace=wrap;html=1;backgroundOutline=1;darkOpacity=0.05;strokeWidth=2;" vertex="1" parent="1">
          <mxGeometry x="550" y="280" width="80" height="100" as="geometry" />
        </mxCell>
        <mxCell id="PoOvZE_jFAfME5Ce7g3m-24" value="" style="shape=note;whiteSpace=wrap;html=1;backgroundOutline=1;darkOpacity=0.05;strokeWidth=2;" vertex="1" parent="1">
          <mxGeometry x="550" y="400" width="80" height="100" as="geometry" />
        </mxCell>
        <mxCell id="PoOvZE_jFAfME5Ce7g3m-25" value="" style="shape=note;whiteSpace=wrap;html=1;backgroundOutline=1;darkOpacity=0.05;strokeWidth=2;" vertex="1" parent="1">
          <mxGeometry x="550" y="520" width="80" height="100" as="geometry" />
        </mxCell>
        <mxCell id="PoOvZE_jFAfME5Ce7g3m-35" style="edgeStyle=orthogonalEdgeStyle;rounded=0;orthogonalLoop=1;jettySize=auto;html=1;entryX=1;entryY=0.75;entryDx=0;entryDy=0;curved=1;strokeWidth=2;fillColor=#fff2cc;strokeColor=#d6b656;" edge="1" parent="1" source="PoOvZE_jFAfME5Ce7g3m-27" target="PoOvZE_jFAfME5Ce7g3m-21">
          <mxGeometry relative="1" as="geometry" />
        </mxCell>
        <mxCell id="PoOvZE_jFAfME5Ce7g3m-27" value="" style="rounded=0;whiteSpace=wrap;html=1;strokeWidth=2;fillColor=#fff2cc;strokeColor=#d6b656;" vertex="1" parent="1">
          <mxGeometry x="560" y="440" width="30" height="10" as="geometry" />
        </mxCell>
        <mxCell id="PoOvZE_jFAfME5Ce7g3m-37" style="edgeStyle=orthogonalEdgeStyle;rounded=0;orthogonalLoop=1;jettySize=auto;html=1;entryX=1;entryY=0.5;entryDx=0;entryDy=0;curved=1;strokeWidth=2;fillColor=#f8cecc;strokeColor=#b85450;" edge="1" parent="1" source="PoOvZE_jFAfME5Ce7g3m-28" target="PoOvZE_jFAfME5Ce7g3m-36">
          <mxGeometry relative="1" as="geometry" />
        </mxCell>
        <mxCell id="PoOvZE_jFAfME5Ce7g3m-28" value="" style="rounded=0;whiteSpace=wrap;html=1;strokeWidth=2;fillColor=#f8cecc;strokeColor=#b85450;" vertex="1" parent="1">
          <mxGeometry x="560" y="530" width="30" height="10" as="geometry" />
        </mxCell>
        <mxCell id="PoOvZE_jFAfME5Ce7g3m-34" style="edgeStyle=orthogonalEdgeStyle;rounded=0;orthogonalLoop=1;jettySize=auto;html=1;entryX=1;entryY=0.75;entryDx=0;entryDy=0;curved=1;strokeWidth=2;fillColor=#d5e8d4;strokeColor=#82b366;" edge="1" parent="1" source="PoOvZE_jFAfME5Ce7g3m-33" target="PoOvZE_jFAfME5Ce7g3m-20">
          <mxGeometry relative="1" as="geometry" />
        </mxCell>
        <mxCell id="PoOvZE_jFAfME5Ce7g3m-33" value="" style="ellipse;whiteSpace=wrap;html=1;aspect=fixed;strokeWidth=2;fillColor=#d5e8d4;strokeColor=#82b366;" vertex="1" parent="1">
          <mxGeometry x="580" y="350" width="10" height="10" as="geometry" />
        </mxCell>
        <mxCell id="PoOvZE_jFAfME5Ce7g3m-36" value="" style="ellipse;whiteSpace=wrap;html=1;aspect=fixed;strokeWidth=2;fillColor=#f8cecc;strokeColor=#b85450;" vertex="1" parent="1">
          <mxGeometry x="460" y="580" width="10" height="10" as="geometry" />
        </mxCell>
        <mxCell id="PoOvZE_jFAfME5Ce7g3m-40" value="" style="endArrow=classic;html=1;rounded=0;strokeWidth=2;fillColor=#dae8fc;strokeColor=#6c8ebf;" edge="1" parent="1">
          <mxGeometry width="50" height="50" relative="1" as="geometry">
            <mxPoint x="410" y="400" as="sourcePoint" />
            <mxPoint x="410" y="500" as="targetPoint" />
          </mxGeometry>
        </mxCell>
        <mxCell id="PoOvZE_jFAfME5Ce7g3m-41" value="向下滚动" style="edgeLabel;html=1;align=center;verticalAlign=middle;resizable=0;points=[];fontColor=light-dark(#6c8ebf, #ededed);" vertex="1" connectable="0" parent="PoOvZE_jFAfME5Ce7g3m-40">
          <mxGeometry x="-0.28" y="1" relative="1" as="geometry">
            <mxPoint as="offset" />
          </mxGeometry>
        </mxCell>
      </root>
    </mxGraphModel>
  </diagram>
</mxfile>
